<svg width="48" height="48" viewBox="0 0 48 48" fill="none" xmlns="http://www.w3.org/2000/svg">
<path fill-rule="evenodd" clip-rule="evenodd" d="M23.9706 40.3565C23.5962 40.3564 23.2372 40.2077 22.9726 39.943C22.7079 39.6783 22.5591 39.3193 22.5591 38.945L22.5591 12.4043L13.9883 20.975C13.7236 21.2398 13.3645 21.3885 12.9901 21.3885C12.6157 21.3885 12.2566 21.2398 11.9919 20.975C11.7272 20.7103 11.5784 20.3512 11.5784 19.9768C11.5784 19.6024 11.7272 19.2433 11.9919 18.9786L22.9723 7.99812C23.2371 7.73337 23.5962 7.58464 23.9706 7.58464C24.345 7.58464 24.704 7.73337 24.9688 7.99812L35.9492 18.9786C36.214 19.2433 36.3627 19.6024 36.3627 19.9768C36.3627 20.3512 36.214 20.7103 35.9492 20.975C35.6845 21.2398 35.3254 21.3885 34.951 21.3885C34.5766 21.3885 34.2175 21.2398 33.9528 20.975L25.382 12.4043L25.384 38.943C25.3843 39.1287 25.3479 39.3126 25.2769 39.4842C25.206 39.6558 25.1019 39.8117 24.9706 39.943C24.8393 40.0743 24.6834 40.1784 24.5118 40.2494C24.3402 40.3203 24.1562 40.3567 23.9706 40.3565Z" fill="black"/>
</svg>
