<svg width="56" height="56" viewBox="0 0 56 56" fill="none" xmlns="http://www.w3.org/2000/svg">
<g clip-path="url(#clip0_619_390)">
<path d="M55.6325 16.2739C55.6325 11.352 52.0121 7.39266 47.5387 7.39266C41.4793 7.10937 35.2996 7 28.9843 7H27.0156C20.7156 7 14.525 7.10937 8.46558 7.39375C4.00308 7.39375 0.382764 11.375 0.382764 16.2969C0.109327 20.1895 -0.00661073 24.0833 -4.82302e-05 27.977C-0.0109857 31.8708 0.112973 35.7682 0.371827 39.6692C0.371827 44.5911 3.99214 48.5833 8.45464 48.5833C14.8203 48.8786 21.35 49.0098 27.989 48.9989C34.639 49.0208 41.1505 48.8822 47.5234 48.5833C51.9968 48.5833 55.6171 44.5911 55.6171 39.6692C55.8796 35.7645 56 31.8708 55.989 27.9661C56.0138 24.0723 55.895 20.1749 55.6325 16.2739ZM22.6406 38.7067V17.2145L38.5 27.9552L22.6406 38.7067Z" fill="#FF0000"/>
</g>
<defs>
<clipPath id="clip0_619_390">
<rect width="56" height="56" fill="white"/>
</clipPath>
</defs>
</svg>
