<svg width="56" height="56" viewBox="0 0 56 56" fill="none" xmlns="http://www.w3.org/2000/svg">
<path d="M16.24 0H39.76C48.72 0 56 7.28 56 16.24V39.76C56 44.0671 54.289 48.1978 51.2434 51.2434C48.1978 54.289 44.0671 56 39.76 56H16.24C7.28 56 0 48.72 0 39.76V16.24C0 11.9329 1.711 7.80218 4.75659 4.75659C7.80218 1.711 11.9329 0 16.24 0ZM15.68 5.6C13.0066 5.6 10.4427 6.662 8.55236 8.55236C6.662 10.4427 5.6 13.0066 5.6 15.68V40.32C5.6 45.892 10.108 50.4 15.68 50.4H40.32C42.9934 50.4 45.5573 49.338 47.4476 47.4476C49.338 45.5573 50.4 42.9934 50.4 40.32V15.68C50.4 10.108 45.892 5.6 40.32 5.6H15.68ZM42.7 9.8C43.6283 9.8 44.5185 10.1687 45.1749 10.8251C45.8313 11.4815 46.2 12.3717 46.2 13.3C46.2 14.2283 45.8313 15.1185 45.1749 15.7749C44.5185 16.4313 43.6283 16.8 42.7 16.8C41.7717 16.8 40.8815 16.4313 40.2251 15.7749C39.5687 15.1185 39.2 14.2283 39.2 13.3C39.2 12.3717 39.5687 11.4815 40.2251 10.8251C40.8815 10.1687 41.7717 9.8 42.7 9.8ZM28 14C31.713 14 35.274 15.475 37.8995 18.1005C40.525 20.726 42 24.287 42 28C42 31.713 40.525 35.274 37.8995 37.8995C35.274 40.525 31.713 42 28 42C24.287 42 20.726 40.525 18.1005 37.8995C15.475 35.274 14 31.713 14 28C14 24.287 15.475 20.726 18.1005 18.1005C20.726 15.475 24.287 14 28 14ZM28 19.6C25.7722 19.6 23.6356 20.485 22.0603 22.0603C20.485 23.6356 19.6 25.7722 19.6 28C19.6 30.2278 20.485 32.3644 22.0603 33.9397C23.6356 35.515 25.7722 36.4 28 36.4C30.2278 36.4 32.3644 35.515 33.9397 33.9397C35.515 32.3644 36.4 30.2278 36.4 28C36.4 25.7722 35.515 23.6356 33.9397 22.0603C32.3644 20.485 30.2278 19.6 28 19.6Z" fill="url(#paint0_linear_619_392)"/>
<defs>
<linearGradient id="paint0_linear_619_392" x1="56" y1="1.02528" x2="41.2666" y2="64.5463" gradientUnits="userSpaceOnUse">
<stop stop-color="#690EFF"/>
<stop offset="0.15" stop-color="#FC01D0"/>
<stop offset="0.5" stop-color="#FF0C53"/>
<stop offset="0.75" stop-color="#FE3D11"/>
<stop offset="1" stop-color="#FE0966"/>
</linearGradient>
</defs>
</svg>
