<svg width="49" height="48" viewBox="0 0 49 48" fill="none" xmlns="http://www.w3.org/2000/svg">
<path d="M39.8214 21.6C40.134 21.6 40.4338 21.4736 40.6548 21.2485C40.8758 21.0235 41 20.7183 41 20.4V14.4C41 13.7635 40.7517 13.153 40.3096 12.7029C39.8676 12.2529 39.268 12 38.6429 12H10.3571C9.73199 12 9.13244 12.2529 8.69039 12.7029C8.24834 13.153 8 13.7635 8 14.4V20.4C8 20.7183 8.12417 21.0235 8.3452 21.2485C8.56622 21.4736 8.86599 21.6 9.17857 21.6C9.80372 21.6 10.4033 21.8529 10.8453 22.3029C11.2874 22.753 11.5357 23.3635 11.5357 24C11.5357 24.6365 11.2874 25.247 10.8453 25.6971C10.4033 26.1471 9.80372 26.4 9.17857 26.4C8.86599 26.4 8.56622 26.5264 8.3452 26.7515C8.12417 26.9765 8 27.2817 8 27.6V33.6C8 34.2365 8.24834 34.847 8.69039 35.2971C9.13244 35.7471 9.73199 36 10.3571 36H38.6429C39.268 36 39.8676 35.7471 40.3096 35.2971C40.7517 34.847 41 34.2365 41 33.6V27.6C41 27.2817 40.8758 26.9765 40.6548 26.7515C40.4338 26.5264 40.134 26.4 39.8214 26.4C39.1963 26.4 38.5967 26.1471 38.1547 25.6971C37.7126 25.247 37.4643 24.6365 37.4643 24C37.4643 23.3635 37.7126 22.753 38.1547 22.3029C38.5967 21.8529 39.1963 21.6 39.8214 21.6ZM38.6429 28.644V33.6H30.3929V30H28.0357V33.6H10.3571V28.644C11.366 28.3755 12.259 27.7741 12.8963 26.9338C13.5336 26.0934 13.8793 25.0617 13.8793 24C13.8793 22.9383 13.5336 21.9066 12.8963 21.0662C12.259 20.2259 11.366 19.6245 10.3571 19.356V14.4H28.0357V18H30.3929V14.4H38.6429V19.356C37.634 19.6245 36.741 20.2259 36.1037 21.0662C35.4664 21.9066 35.1207 22.9383 35.1207 24C35.1207 25.0617 35.4664 26.0934 36.1037 26.9338C36.741 27.7741 37.634 28.3755 38.6429 28.644Z" fill="black"/>
<path d="M28 21H30V27H28V21Z" fill="black"/>
</svg>
