<svg width="48" height="48" viewBox="0 0 48 48" fill="none" xmlns="http://www.w3.org/2000/svg">
<path d="M39.3214 21.6C39.634 21.6 39.9338 21.4736 40.1548 21.2485C40.3758 21.0235 40.5 20.7183 40.5 20.4V14.4C40.5 13.7635 40.2517 13.153 39.8096 12.7029C39.3676 12.2529 38.768 12 38.1429 12H9.85714C9.23199 12 8.63244 12.2529 8.19039 12.7029C7.74834 13.153 7.5 13.7635 7.5 14.4V20.4C7.5 20.7183 7.62417 21.0235 7.8452 21.2485C8.06622 21.4736 8.36599 21.6 8.67857 21.6C9.30372 21.6 9.90327 21.8529 10.3453 22.3029C10.7874 22.753 11.0357 23.3635 11.0357 24C11.0357 24.6365 10.7874 25.247 10.3453 25.6971C9.90327 26.1471 9.30372 26.4 8.67857 26.4C8.36599 26.4 8.06622 26.5264 7.8452 26.7515C7.62417 26.9765 7.5 27.2817 7.5 27.6V33.6C7.5 34.2365 7.74834 34.847 8.19039 35.2971C8.63244 35.7471 9.23199 36 9.85714 36H38.1429C38.768 36 39.3676 35.7471 39.8096 35.2971C40.2517 34.847 40.5 34.2365 40.5 33.6V27.6C40.5 27.2817 40.3758 26.9765 40.1548 26.7515C39.9338 26.5264 39.634 26.4 39.3214 26.4C38.6963 26.4 38.0967 26.1471 37.6547 25.6971C37.2126 25.247 36.9643 24.6365 36.9643 24C36.9643 23.3635 37.2126 22.753 37.6547 22.3029C38.0967 21.8529 38.6963 21.6 39.3214 21.6ZM38.1429 28.644V33.6H29.8929V30H27.5357V33.6H9.85714V28.644C10.866 28.3755 11.759 27.7741 12.3963 26.9338C13.0336 26.0934 13.3793 25.0617 13.3793 24C13.3793 22.9383 13.0336 21.9066 12.3963 21.0662C11.759 20.2259 10.866 19.6245 9.85714 19.356V14.4H27.5357V18H29.8929V14.4H38.1429V19.356C37.134 19.6245 36.241 20.2259 35.6037 21.0662C34.9664 21.9066 34.6207 22.9383 34.6207 24C34.6207 25.0617 34.9664 26.0934 35.6037 26.9338C36.241 27.7741 37.134 28.3755 38.1429 28.644Z" fill="#F39C12"/>
<path d="M27.5 21H29.5V27H27.5V21Z" fill="#F39C12"/>
</svg>
